<svg xmlns="http://www.w3.org/2000/svg" xmlns:xlink="http://www.w3.org/1999/xlink" viewBox="0 0 738 347" width="738" height="347"><path d="M 198.000,295.203 C 198.000,290.203 198.791,290.110 198.000,285.203" stroke-width="5.344" stroke="black" fill="none" stroke-linecap="round"></path><path d="M 198.000,285.203 C 196.291,274.610 195.618,274.674 193.000,264.203" stroke-width="2.870" stroke="black" fill="none" stroke-linecap="round"></path><path d="M 193.000,264.203 C 189.118,248.674 189.050,248.690 185.000,233.203" stroke-width="2.439" stroke="black" fill="none" stroke-linecap="round"></path><path d="M 185.000,233.203 C 180.550,216.190 180.450,216.216 176.000,199.203" stroke-width="1.919" stroke="black" fill="none" stroke-linecap="round"></path><path d="M 176.000,199.203 C 171.950,183.716 171.882,183.732 168.000,168.203" stroke-width="1.941" stroke="black" fill="none" stroke-linecap="round"></path><path d="M 168.000,168.203 C 165.382,157.732 165.377,157.730 163.000,147.203" stroke-width="2.288" stroke="black" fill="none" stroke-linecap="round"></path><path d="M 163.000,147.203 C 161.877,142.230 162.000,142.203 161.000,137.203" stroke-width="2.986" stroke="black" fill="none" stroke-linecap="round"></path><path d="M 161.000,137.203 C 160.500,134.703 159.097,131.075 160.000,132.203" stroke-width="3.780" stroke="black" fill="none" stroke-linecap="round"></path><path d="M 160.000,132.203 C 163.097,136.075 164.530,139.685 169.000,147.203" stroke-width="4.496" stroke="black" fill="none" stroke-linecap="round"></path><path d="M 169.000,147.203 C 175.530,158.185 175.590,158.151 182.000,169.203" stroke-width="2.644" stroke="black" fill="none" stroke-linecap="round"></path><path d="M 182.000,169.203 C 190.090,183.151 190.107,183.143 198.000,197.203" stroke-width="2.110" stroke="black" fill="none" stroke-linecap="round"></path><path d="M 198.000,197.203 C 206.107,211.643 205.642,211.914 214.000,226.203" stroke-width="1.964" stroke="black" fill="none" stroke-linecap="round"></path><path d="M 214.000,226.203 C 221.142,238.414 221.290,238.341 229.000,250.203" stroke-width="2.011" stroke="black" fill="none" stroke-linecap="round"></path><path d="M 229.000,250.203 C 234.290,258.341 234.330,258.328 240.000,266.203" stroke-width="2.405" stroke="black" fill="none" stroke-linecap="round"></path><path d="M 240.000,266.203 C 243.330,270.828 243.439,270.752 247.000,275.203" stroke-width="3.006" stroke="black" fill="none" stroke-linecap="round"></path><path d="M 247.000,275.203 C 249.439,278.252 249.256,278.460 252.000,281.203" stroke-width="3.554" stroke="black" fill="none" stroke-linecap="round"></path><path d="M 252.000,281.203 C 253.756,282.960 254.000,282.703 256.000,284.203" stroke-width="4.036" stroke="black" fill="none" stroke-linecap="round"></path><path d="M 256.000,284.203 C 258.000,285.703 260.997,286.539 260.000,287.203" stroke-width="4.803" stroke="black" fill="none" stroke-linecap="round"></path><path d="M 260.000,287.203 C 257.997,288.539 255.008,287.802 250.000,288.203" stroke-width="4.471" stroke="black" fill="none" stroke-linecap="round"></path><path d="M 250.000,288.203 C 242.508,288.802 242.505,288.797 235.000,289.203" stroke-width="3.242" stroke="black" fill="none" stroke-linecap="round"></path><path d="M 235.000,289.203 C 224.005,289.797 224.006,289.964 213.000,290.203" stroke-width="2.644" stroke="black" fill="none" stroke-linecap="round"></path><path d="M 213.000,290.203 C 201.006,290.464 201.000,290.203 189.000,290.203" stroke-width="2.418" stroke="black" fill="none" stroke-linecap="round"></path><path d="M 189.000,290.203 C 179.000,290.203 179.000,290.203 169.000,290.203" stroke-width="2.475" stroke="black" fill="none" stroke-linecap="round"></path><path d="M 169.000,290.203 C 163.000,290.203 163.000,290.203 157.000,290.203" stroke-width="2.998" stroke="black" fill="none" stroke-linecap="round"></path><path d="M 157.000,290.203 C 154.000,290.203 150.694,291.887 151.000,290.203" stroke-width="3.688" stroke="black" fill="none" stroke-linecap="round"></path><path d="M 151.000,290.203 C 151.694,286.387 154.393,284.184 159.000,279.203" stroke-width="4.298" stroke="black" fill="none" stroke-linecap="round"></path><path d="M 159.000,279.203 C 172.893,264.184 173.592,264.794 188.000,250.203" stroke-width="2.093" stroke="black" fill="none" stroke-linecap="round"></path><path d="M 188.000,250.203 C 213.092,224.794 212.402,224.090 238.000,199.203" stroke-width="1.265" stroke="black" fill="none" stroke-linecap="round"></path><path d="M 238.000,199.203 C 266.402,171.590 266.659,171.827 296.000,145.203" stroke-width="1.170" stroke="black" fill="none" stroke-linecap="round"></path><path d="M 296.000,145.203 C 320.659,122.827 320.718,122.873 346.000,101.203" stroke-width="1.125" stroke="black" fill="none" stroke-linecap="round"></path><path d="M 346.000,101.203 C 366.218,83.873 366.517,84.224 387.000,67.203" stroke-width="1.275" stroke="black" fill="none" stroke-linecap="round"></path><path d="M 387.000,67.203 C 402.017,54.724 402.022,54.730 417.000,42.203" stroke-width="1.507" stroke="black" fill="none" stroke-linecap="round"></path><path d="M 417.000,42.203 C 429.522,31.730 429.367,31.539 442.000,21.203" stroke-width="1.778" stroke="black" fill="none" stroke-linecap="round"></path><path d="M 236.000,144.203 C 236.000,147.203 235.579,147.255 236.000,150.203" stroke-width="5.363" stroke="black" fill="none" stroke-linecap="round"></path><path d="M 236.000,150.203 C 236.579,154.255 236.699,154.300 238.000,158.203" stroke-width="4.154" stroke="black" fill="none" stroke-linecap="round"></path><path d="M 238.000,158.203 C 239.699,163.300 240.139,163.152 242.000,168.203" stroke-width="3.566" stroke="black" fill="none" stroke-linecap="round"></path><path d="M 242.000,168.203 C 243.639,172.652 243.405,172.738 245.000,177.203" stroke-width="3.597" stroke="black" fill="none" stroke-linecap="round"></path><path d="M 245.000,177.203 C 245.905,179.738 246.000,179.703 247.000,182.203" stroke-width="4.044" stroke="black" fill="none" stroke-linecap="round"></path><path d="M 247.000,182.203 C 248.000,184.703 248.230,184.635 249.000,187.203" stroke-width="4.201" stroke="black" fill="none" stroke-linecap="round"></path><path d="M 249.000,187.203 C 249.730,189.635 249.544,189.695 250.000,192.203" stroke-width="5.043" stroke="black" fill="none" stroke-linecap="round"></path><path d="M 250.000,192.203 C 250.544,195.195 250.204,195.286 251.000,198.203" stroke-width="5.016" stroke="black" fill="none" stroke-linecap="round"></path><path d="M 251.000,198.203 C 251.704,200.786 251.964,200.718 253.000,203.203" stroke-width="5.148" stroke="black" fill="none" stroke-linecap="round"></path><path d="M 253.000,203.203 C 254.464,206.718 254.888,206.589 256.000,210.203" stroke-width="5.405" stroke="black" fill="none" stroke-linecap="round"></path><path d="M 256.000,210.203 C 256.888,213.089 256.811,216.960 257.000,216.203" stroke-width="4.929" stroke="black" fill="none" stroke-linecap="round"></path><path d="M 257.000,216.203 C 257.311,214.960 257.548,211.136 257.000,206.203" stroke-width="5.264" stroke="black" fill="none" stroke-linecap="round"></path><path d="M 257.000,206.203 C 256.548,202.136 255.758,202.248 255.000,198.203" stroke-width="4.136" stroke="black" fill="none" stroke-linecap="round"></path><path d="M 255.000,198.203 C 254.258,194.248 254.471,194.207 254.000,190.203" stroke-width="3.906" stroke="black" fill="none" stroke-linecap="round"></path><path d="M 254.000,190.203 C 253.471,185.707 253.282,185.715 253.000,181.203" stroke-width="3.681" stroke="black" fill="none" stroke-linecap="round"></path><path d="M 253.000,181.203 C 252.782,177.715 253.000,177.703 253.000,174.203" stroke-width="3.888" stroke="black" fill="none" stroke-linecap="round"></path><path d="M 253.000,174.203 C 253.000,171.703 252.623,168.637 253.000,169.203" stroke-width="4.158" stroke="black" fill="none" stroke-linecap="round"></path><path d="M 253.000,169.203 C 253.623,170.137 253.868,173.242 255.000,177.203" stroke-width="4.933" stroke="black" fill="none" stroke-linecap="round"></path><path d="M 255.000,177.203 C 255.868,180.242 256.235,180.145 257.000,183.203" stroke-width="4.367" stroke="black" fill="none" stroke-linecap="round"></path><path d="M 257.000,183.203 C 257.735,186.145 256.368,187.843 258.000,189.203" stroke-width="4.613" stroke="black" fill="none" stroke-linecap="round"></path><path d="M 258.000,189.203 C 259.368,190.343 261.005,189.533 263.000,188.203" stroke-width="5.023" stroke="black" fill="none" stroke-linecap="round"></path><path d="M 263.000,188.203 C 265.505,186.533 265.119,185.790 267.000,183.203" stroke-width="4.423" stroke="black" fill="none" stroke-linecap="round"></path><path d="M 267.000,183.203 C 269.119,180.290 269.298,180.364 271.000,177.203" stroke-width="4.081" stroke="black" fill="none" stroke-linecap="round"></path><path d="M 271.000,177.203 C 272.798,173.864 272.800,173.804 274.000,170.203" stroke-width="4.035" stroke="black" fill="none" stroke-linecap="round"></path><path d="M 274.000,170.203 C 275.300,166.304 275.285,166.254 276.000,162.203" stroke-width="3.859" stroke="black" fill="none" stroke-linecap="round"></path><path d="M 276.000,162.203 C 276.785,157.754 276.774,157.718 277.000,153.203" stroke-width="3.668" stroke="black" fill="none" stroke-linecap="round"></path><path d="M 277.000,153.203 C 277.274,147.718 277.261,147.690 277.000,142.203" stroke-width="3.487" stroke="black" fill="none" stroke-linecap="round"></path><path d="M 277.000,142.203 C 276.761,137.190 276.587,137.193 276.000,132.203" stroke-width="3.521" stroke="black" fill="none" stroke-linecap="round"></path><path d="M 276.000,132.203 C 275.587,128.693 275.792,128.634 275.000,125.203" stroke-width="3.779" stroke="black" fill="none" stroke-linecap="round"></path><path d="M 275.000,125.203 C 274.292,122.134 272.839,118.078 273.000,119.203" stroke-width="4.405" stroke="black" fill="none" stroke-linecap="round"></path><path d="M 273.000,119.203 C 273.339,121.578 273.756,125.971 276.000,132.203" stroke-width="4.705" stroke="black" fill="none" stroke-linecap="round"></path><path d="M 276.000,132.203 C 278.256,138.471 279.207,138.109 282.000,144.203" stroke-width="3.491" stroke="black" fill="none" stroke-linecap="round"></path><path d="M 282.000,144.203 C 284.707,150.109 284.223,150.340 287.000,156.203" stroke-width="3.210" stroke="black" fill="none" stroke-linecap="round"></path><path d="M 287.000,156.203 C 288.723,159.840 289.090,159.655 291.000,163.203" stroke-width="3.611" stroke="black" fill="none" stroke-linecap="round"></path><path d="M 291.000,163.203 C 292.590,166.155 293.026,169.447 294.000,169.203" stroke-width="4.295" stroke="black" fill="none" stroke-linecap="round"></path><path d="M 294.000,169.203 C 295.026,168.947 294.749,165.721 295.000,162.203" stroke-width="4.821" stroke="black" fill="none" stroke-linecap="round"></path><path d="M 295.000,162.203 C 295.249,158.721 295.000,158.703 295.000,155.203" stroke-width="4.203" stroke="black" fill="none" stroke-linecap="round"></path><path d="M 295.000,155.203 C 295.000,151.703 294.751,151.685 295.000,148.203" stroke-width="3.996" stroke="black" fill="none" stroke-linecap="round"></path><path d="M 295.000,148.203 C 295.251,144.685 294.119,143.353 296.000,141.203" stroke-width="4.436" stroke="black" fill="none" stroke-linecap="round"></path><path d="M 296.000,141.203 C 297.619,139.353 299.136,139.630 302.000,140.203" stroke-width="4.921" stroke="black" fill="none" stroke-linecap="round"></path><path d="M 302.000,140.203 C 306.636,141.130 306.489,142.229 311.000,144.203" stroke-width="4.493" stroke="black" fill="none" stroke-linecap="round"></path><path d="M 311.000,144.203 C 314.489,145.729 315.168,147.769 318.000,147.203" stroke-width="4.547" stroke="black" fill="none" stroke-linecap="round"></path><path d="M 318.000,147.203 C 320.168,146.769 320.318,144.930 321.000,142.203" stroke-width="4.880" stroke="black" fill="none" stroke-linecap="round"></path><path d="M 321.000,142.203 C 321.818,138.930 321.000,138.703 321.000,135.203" stroke-width="4.160" stroke="black" fill="none" stroke-linecap="round"></path><path d="M 321.000,135.203 C 321.000,131.203 321.558,131.112 321.000,127.203" stroke-width="3.920" stroke="black" fill="none" stroke-linecap="round"></path><path d="M 321.000,127.203 C 320.558,124.112 320.080,124.174 319.000,121.203" stroke-width="3.997" stroke="black" fill="none" stroke-linecap="round"></path><path d="M 319.000,121.203 C 318.080,118.674 317.000,115.973 317.000,116.203" stroke-width="4.550" stroke="black" fill="none" stroke-linecap="round"></path><path d="M 317.000,116.203 C 317.000,116.473 317.110,120.043 319.000,122.203" stroke-width="5.067" stroke="black" fill="none" stroke-linecap="round"></path><path d="M 319.000,122.203 C 320.610,124.043 322.283,125.405 324.000,124.203" stroke-width="5.160" stroke="black" fill="none" stroke-linecap="round"></path><path d="M 324.000,124.203 C 327.283,121.905 327.221,119.946 329.000,115.203" stroke-width="4.516" stroke="black" fill="none" stroke-linecap="round"></path><path d="M 329.000,115.203 C 330.221,111.946 329.462,111.697 330.000,108.203" stroke-width="4.122" stroke="black" fill="none" stroke-linecap="round"></path><path d="M 330.000,108.203 C 330.462,105.197 330.456,105.195 331.000,102.203" stroke-width="4.136" stroke="black" fill="none" stroke-linecap="round"></path><path d="M 331.000,102.203 C 331.456,99.695 330.670,97.425 332.000,97.203" stroke-width="4.625" stroke="black" fill="none" stroke-linecap="round"></path><path d="M 332.000,97.203 C 333.670,96.925 334.744,98.948 337.000,101.203" stroke-width="4.872" stroke="black" fill="none" stroke-linecap="round"></path><path d="M 337.000,101.203 C 340.744,104.948 340.250,105.453 344.000,109.203" stroke-width="3.853" stroke="black" fill="none" stroke-linecap="round"></path><path d="M 344.000,109.203 C 347.750,112.953 347.802,112.974 352.000,116.203" stroke-width="3.509" stroke="black" fill="none" stroke-linecap="round"></path><path d="M 352.000,116.203 C 354.302,117.974 354.442,117.808 357.000,119.203" stroke-width="3.917" stroke="black" fill="none" stroke-linecap="round"></path><path d="M 357.000,119.203 C 359.942,120.808 361.979,123.905 363.000,122.203" stroke-width="4.433" stroke="black" fill="none" stroke-linecap="round"></path><path d="M 363.000,122.203 C 364.979,118.905 363.209,115.697 363.000,109.203" stroke-width="4.147" stroke="black" fill="none" stroke-linecap="round"></path><path d="M 363.000,109.203 C 362.709,100.197 363.365,100.077 362.000,91.203" stroke-width="3.111" stroke="black" fill="none" stroke-linecap="round"></path><path d="M 362.000,91.203 C 360.365,80.577 360.070,80.529 357.000,70.203" stroke-width="2.572" stroke="black" fill="none" stroke-linecap="round"></path><path d="M 357.000,70.203 C 354.570,62.029 354.030,62.192 351.000,54.203" stroke-width="2.674" stroke="black" fill="none" stroke-linecap="round"></path><path d="M 351.000,54.203 C 348.530,47.692 349.096,47.395 346.000,41.203" stroke-width="2.953" stroke="black" fill="none" stroke-linecap="round"></path><path d="M 346.000,41.203 C 343.596,36.395 343.455,36.286 340.000,32.203" stroke-width="3.276" stroke="black" fill="none" stroke-linecap="round"></path><path d="M 340.000,32.203 C 337.955,29.786 336.638,27.501 335.000,28.203" stroke-width="4.151" stroke="black" fill="none" stroke-linecap="round"></path><path d="M 335.000,28.203 C 333.138,29.001 333.223,31.638 333.000,35.203" stroke-width="4.757" stroke="black" fill="none" stroke-linecap="round"></path><path d="M 333.000,35.203 C 332.723,39.638 332.644,39.941 334.000,44.203" stroke-width="4.051" stroke="black" fill="none" stroke-linecap="round"></path><path d="M 334.000,44.203 C 336.144,50.941 336.157,51.224 340.000,57.203" stroke-width="3.297" stroke="black" fill="none" stroke-linecap="round"></path><path d="M 340.000,57.203 C 345.157,65.224 346.121,64.609 352.000,72.203" stroke-width="2.930" stroke="black" fill="none" stroke-linecap="round"></path><path d="M 352.000,72.203 C 358.121,80.109 357.756,80.399 364.000,88.203" stroke-width="2.615" stroke="black" fill="none" stroke-linecap="round"></path><path d="M 364.000,88.203 C 369.756,95.399 370.210,95.035 376.000,102.203" stroke-width="2.673" stroke="black" fill="none" stroke-linecap="round"></path><path d="M 376.000,102.203 C 380.710,108.035 380.415,108.269 385.000,114.203" stroke-width="2.830" stroke="black" fill="none" stroke-linecap="round"></path><path d="M 385.000,114.203 C 388.915,119.269 389.462,118.896 393.000,124.203" stroke-width="3.135" stroke="black" fill="none" stroke-linecap="round"></path><path d="M 393.000,124.203 C 396.462,129.396 396.395,129.520 399.000,135.203" stroke-width="3.207" stroke="black" fill="none" stroke-linecap="round"></path><path d="M 399.000,135.203 C 401.895,141.520 401.581,141.673 404.000,148.203" stroke-width="3.125" stroke="black" fill="none" stroke-linecap="round"></path><path d="M 404.000,148.203 C 406.581,155.173 406.500,155.203 409.000,162.203" stroke-width="2.976" stroke="black" fill="none" stroke-linecap="round"></path><path d="M 409.000,162.203 C 411.500,169.203 412.029,169.057 414.000,176.203" stroke-width="2.934" stroke="black" fill="none" stroke-linecap="round"></path><path d="M 414.000,176.203 C 416.029,183.557 415.920,183.645 417.000,191.203" stroke-width="2.953" stroke="black" fill="none" stroke-linecap="round"></path><path d="M 417.000,191.203 C 417.920,197.645 419.192,198.007 418.000,204.203" stroke-width="3.110" stroke="black" fill="none" stroke-linecap="round"></path><path d="M 418.000,204.203 C 416.692,211.007 416.531,211.884 412.000,217.203" stroke-width="3.010" stroke="black" fill="none" stroke-linecap="round"></path><path d="M 412.000,217.203 C 405.031,225.384 404.014,224.943 395.000,231.203" stroke-width="2.595" stroke="black" fill="none" stroke-linecap="round"></path><path d="M 395.000,231.203 C 386.014,237.443 385.747,237.191 376.000,242.203" stroke-width="2.495" stroke="black" fill="none" stroke-linecap="round"></path><path d="M 376.000,242.203 C 368.247,246.191 367.860,245.418 360.000,249.203" stroke-width="2.628" stroke="black" fill="none" stroke-linecap="round"></path><path d="M 360.000,249.203 C 354.360,251.918 354.536,252.272 349.000,255.203" stroke-width="3.027" stroke="black" fill="none" stroke-linecap="round"></path><path d="M 349.000,255.203 C 346.036,256.772 341.573,259.966 343.000,258.203" stroke-width="3.627" stroke="black" fill="none" stroke-linecap="round"></path><path d="M 343.000,258.203 C 350.073,249.466 354.558,246.258 366.000,234.203" stroke-width="3.731" stroke="black" fill="none" stroke-linecap="round"></path><path d="M 366.000,234.203 C 382.558,216.758 382.254,216.464 399.000,199.203" stroke-width="1.727" stroke="black" fill="none" stroke-linecap="round"></path><path d="M 399.000,199.203 C 414.754,182.964 415.000,183.203 431.000,167.203" stroke-width="1.589" stroke="black" fill="none" stroke-linecap="round"></path><path d="M 431.000,167.203 C 448.000,150.203 448.392,150.578 465.000,133.203" stroke-width="1.455" stroke="black" fill="none" stroke-linecap="round"></path><path d="M 465.000,133.203 C 480.892,116.578 480.661,116.347 496.000,99.203" stroke-width="1.498" stroke="black" fill="none" stroke-linecap="round"></path><path d="M 496.000,99.203 C 506.161,87.847 506.246,87.907 516.000,76.203" stroke-width="1.780" stroke="black" fill="none" stroke-linecap="round"></path><path d="M 516.000,76.203 C 523.746,66.907 523.693,66.848 531.000,57.203" stroke-width="2.127" stroke="black" fill="none" stroke-linecap="round"></path><path d="M 531.000,57.203 C 536.193,50.348 535.941,50.160 541.000,43.203" stroke-width="2.555" stroke="black" fill="none" stroke-linecap="round"></path><path d="M 541.000,43.203 C 543.941,39.160 543.912,39.133 547.000,35.203" stroke-width="3.128" stroke="black" fill="none" stroke-linecap="round"></path><path d="M 547.000,35.203 C 549.412,32.133 549.390,32.103 552.000,29.203" stroke-width="3.603" stroke="black" fill="none" stroke-linecap="round"></path><path d="M 552.000,29.203 C 553.890,27.103 553.877,27.061 556.000,25.203" stroke-width="4.014" stroke="black" fill="none" stroke-linecap="round"></path><path d="M 556.000,25.203 C 557.877,23.561 558.027,23.738 560.000,22.203" stroke-width="4.241" stroke="black" fill="none" stroke-linecap="round"></path><path d="M 560.000,22.203 C 562.527,20.238 565.000,17.563 565.000,18.203" stroke-width="4.559" stroke="black" fill="none" stroke-linecap="round"></path><path d="M 565.000,18.203 C 565.000,19.063 562.580,21.763 560.000,25.203" stroke-width="5.120" stroke="black" fill="none" stroke-linecap="round"></path><path d="M 560.000,25.203 C 556.580,29.763 556.586,29.773 553.000,34.203" stroke-width="3.819" stroke="black" fill="none" stroke-linecap="round"></path><path d="M 553.000,34.203 C 548.086,40.273 548.023,40.223 543.000,46.203" stroke-width="3.215" stroke="black" fill="none" stroke-linecap="round"></path><path d="M 543.000,46.203 C 537.523,52.723 537.349,52.581 532.000,59.203" stroke-width="2.856" stroke="black" fill="none" stroke-linecap="round"></path><path d="M 532.000,59.203 C 526.849,65.581 526.920,65.643 522.000,72.203" stroke-width="2.968" stroke="black" fill="none" stroke-linecap="round"></path><path d="M 522.000,72.203 C 517.920,77.643 517.568,77.440 514.000,83.203" stroke-width="3.076" stroke="black" fill="none" stroke-linecap="round"></path><path d="M 514.000,83.203 C 511.068,87.940 511.500,88.203 509.000,93.203" stroke-width="3.341" stroke="black" fill="none" stroke-linecap="round"></path><path d="M 509.000,93.203 C 507.000,97.203 506.873,97.146 505.000,101.203" stroke-width="3.524" stroke="black" fill="none" stroke-linecap="round"></path><path d="M 505.000,101.203 C 503.873,103.646 502.453,107.296 503.000,106.203" stroke-width="4.016" stroke="black" fill="none" stroke-linecap="round"></path><circle r="1.5" cx="522" cy="120.203125" fill="black"></circle><circle r="1.5" cx="536" cy="109.203125" fill="black"></circle><circle r="1.5" cx="300" cy="82.203125" fill="black"></circle></svg>